<svg width="102" height="102" viewBox="0 0 102 102" fill="none" xmlns="http://www.w3.org/2000/svg">
<path d="M78.625 72.25V91.375L76.5 87.125L74.375 97.75L72.25 93.5L70.125 99.875L65.875 87.125L78.625 72.25Z" fill="#313131"/>
<path d="M23.375 72.25V91.375L25.5 87.125L27.625 97.75L29.75 93.5L31.875 99.875L36.125 87.125L23.375 72.25Z" fill="#313131"/>
<path d="M25.5 53.125H19.0995C16.7662 53.125 14.875 55.0163 14.875 57.3495V64.1474C14.875 65.297 15.1066 66.4339 15.5593 67.49C16.5495 69.7978 19.4013 75.1783 20.6508 77.5136C21.0226 78.2043 21.7366 78.625 22.5207 78.625H22.4953C23.0584 78.625 23.6003 78.4019 23.9976 78.0024L25.5 76.5V53.125Z" fill="#FFBCA7"/>
<path d="M21.5156 72.25C21.5156 72.25 19.125 72.25 19.125 68C19.125 60.5625 17 59.5 17 59.5C17 59.5 23.375 58.7031 23.375 68C23.375 72.25 21.5156 72.25 21.5156 72.25Z" fill="#FFAD93"/>
<path d="M76.5 53.125H82.9005C85.2338 53.125 87.125 55.0163 87.125 57.3495V64.1474C87.125 65.297 86.8934 66.4339 86.4408 67.49C85.4505 69.7978 82.5988 75.1783 81.3493 77.5136C80.9774 78.2043 80.2634 78.625 79.4793 78.625H79.5048C78.9416 78.625 78.3998 78.4019 78.0024 78.0024L76.5 76.5V53.125Z" fill="#FFBCA7"/>
<path d="M80.4844 72.25C80.4844 72.25 82.875 72.25 82.875 68C82.875 60.5625 85 59.5 85 59.5C85 59.5 78.625 58.7031 78.625 68C78.625 72.25 80.4844 72.25 80.4844 72.25Z" fill="#FFAD93"/>
<path d="M51 23.375C25.8761 23.375 23.375 42.5 23.375 42.5C23.375 42.5 23.375 63.75 23.375 70.125C23.375 74.375 23.6789 76.5 27.625 82.875C28.6981 84.6069 40.375 102 46.75 102C49.0386 102 51.9159 102 55.25 102C61.625 102 73.5824 84.1564 74.375 82.875C78.3211 76.5 78.625 74.375 78.625 70.125C78.625 63.75 78.625 42.5 78.625 42.5C78.625 42.5 76.1239 23.375 51 23.375Z" fill="#FFDBD0"/>
<path d="M46.75 78.625H55.25C55.25 78.625 53.125 82.875 51 82.875C48.875 82.875 46.75 78.625 46.75 78.625Z" fill="#FFBCA7"/>
<path d="M59.5 87.125H42.5V91.375H59.5V87.125Z" fill="#FFBCA7"/>
<path d="M48.875 51C40.8425 42.2875 30.855 34.3612 28.2625 32.3637C29.4737 30.8975 31.0037 29.4737 32.8949 28.1987C35.2112 30.9187 45.135 42.7975 48.875 51Z" fill="#FFBCA7"/>
<path d="M46.75 55.25C33.915 46.41 26.0738 43.5837 23.375 42.7762C23.375 42.6062 23.375 42.5 23.375 42.5C23.375 42.5 23.7363 39.7587 25.5425 36.3587C27.7525 38.0587 41.6287 48.8962 46.75 55.25Z" fill="#FFBCA7"/>
<path d="M27.625 65.875C27.625 65.875 28.6875 70.125 35.0625 70.125C41.4375 70.125 46.75 68 46.75 68C46.75 68 41.4375 74.375 35.0625 74.375C27.625 74.375 27.625 65.875 27.625 65.875Z" fill="#FFBCA7"/>
<path d="M46.75 72.25C46.75 72.25 43.0312 78.625 35.0625 78.625C27.3594 78.625 25.5 72.25 25.5 72.25C25.5 72.25 25.7656 82.875 36.125 82.875C44.625 82.875 46.75 72.25 46.75 72.25Z" fill="#FFBCA7"/>
<path d="M40.3537 85C36.8475 87.3588 34.68 89.5263 33.49 91.0138C32.5337 89.8025 31.6625 88.6337 30.8762 87.5712C34.8712 85.425 40.3537 85 40.3537 85Z" fill="#FFBCA7"/>
<path d="M40.3325 91.375C40.3325 91.375 38.9937 93.4575 38.335 96.5388C37.4 95.6038 36.4862 94.5837 35.615 93.5637C37.8462 91.6937 40.3325 91.375 40.3325 91.375Z" fill="#FFBCA7"/>
<path d="M46.75 89.25V102C45.475 102 43.9875 101.299 42.415 100.172C43.35 97.9625 44.625 94.5625 44.625 91.375C44.625 90.5888 44.625 89.25 44.625 89.25H46.75Z" fill="#FFBCA7"/>
<path d="M29.75 53.125L44.625 63.75L46.75 59.5L29.75 51V53.125Z" fill="#212121"/>
<path d="M29.75 59.5C29.75 59.5 31.875 59.5 38.25 59.5C42.5 59.5 44.625 63.75 44.625 63.75L42.5 65.875H37.3511C31.875 65.875 29.75 63.75 29.75 61.625V59.5Z" fill="#F5E9E8"/>
<path d="M37.1875 65.875C38.9479 65.875 40.375 64.4479 40.375 62.6875C40.375 60.9271 38.9479 59.5 37.1875 59.5C35.4271 59.5 34 60.9271 34 62.6875C34 64.4479 35.4271 65.875 37.1875 65.875Z" fill="#BF360C"/>
<path d="M44.625 63.75C44.625 63.75 42.7656 61.625 31.6094 61.625H29.75V57.375C29.75 57.375 31.6519 57.375 34 57.375C44.625 57.375 44.625 63.75 44.625 63.75Z" fill="#212121"/>
<path d="M72.25 59.5C72.25 59.5 68 59.5 63.75 59.5C59.5 59.5 57.375 63.75 57.375 63.75L59.5 65.875H64.6489C70.125 65.875 72.25 63.75 72.25 61.625V59.5Z" fill="#616161"/>
<path d="M70.125 60.5625C70.125 63.4971 67.7471 65.875 64.8125 65.875C61.8779 65.875 59.5 63.4971 59.5 60.5625H70.125Z" fill="#9E9E9E"/>
<path d="M64.8125 63.75C66.5729 63.75 68 62.3229 68 60.5625C68 58.8021 66.5729 57.375 64.8125 57.375C63.0521 57.375 61.625 58.8021 61.625 60.5625C61.625 62.3229 63.0521 63.75 64.8125 63.75Z" fill="#424242"/>
<path d="M57.375 63.75C57.375 63.75 59.2344 61.625 70.3906 61.625H72.25V57.375C72.25 57.375 70.3481 57.375 68 57.375C57.375 57.375 57.375 63.75 57.375 63.75Z" fill="#212121"/>
<path d="M72.25 53.125L57.375 63.75L55.25 59.5L72.25 51V53.125Z" fill="#212121"/>
<path d="M93.5 42.5C93.5 42.5 91.375 36.125 82.875 31.875L91.375 27.625C91.375 27.625 87.125 23.375 80.75 21.25L85 10.625C85 10.625 76.5 10.625 72.25 12.75L70.125 2.125C70.125 2.125 63.75 4.25 59.5 8.5L51 0L42.5 8.5C38.25 4.25 31.875 2.125 31.875 2.125L29.75 12.75C25.5 10.625 17 10.625 17 10.625L21.25 21.25C14.875 23.375 10.625 27.625 10.625 27.625L19.125 31.875C10.625 36.125 8.5 42.5 8.5 42.5H17C12.75 48.875 10.625 57.375 10.625 57.375L19.125 53.125L21.25 65.875L23.375 70.125V53.125L25.5 55.25L27.625 38.25L29.75 44.8906L34 34V44.625L40.375 31.875L42.5 42.5L48.875 31.875C48.875 31.875 53.125 40.375 57.375 44.625C57.375 44.625 57.375 36.125 59.5 31.875C61.625 38.25 65.875 44.625 65.875 44.625L68 34L72.25 44.625L74.375 36.125L76.5 55.25L78.625 53.125V70.125L80.75 65.875L82.875 53.125L91.375 57.375C91.375 57.375 89.25 48.875 85 42.5H93.5Z" fill="#424242"/>
<path d="M17 51V46.75C14.3438 48.3438 12.7245 51 12.7245 51C11.3326 54.5785 10.625 57.375 10.625 57.375L19.125 53.125V48.875L17 51Z" fill="#313131"/>
<path d="M85 51V46.75C87.6562 48.3438 89.2755 51 89.2755 51C90.6674 54.5785 91.375 57.375 91.375 57.375L82.875 53.125V48.875L85 51Z" fill="#313131"/>
</svg>
