<svg width="21" height="21" viewBox="0 0 21 21" fill="none" xmlns="http://www.w3.org/2000/svg">
<path d="M14.4375 7.875C14.4375 10.0496 12.6746 11.8125 10.5 11.8125C8.32538 11.8125 6.5625 10.0496 6.5625 7.875C6.5625 5.70038 8.32538 3.9375 10.5 3.9375C12.6746 3.9375 14.4375 5.70038 14.4375 7.875Z" fill="#F78C54"/>
<path d="M2.625 0C1.17525 0 0 1.17525 0 2.625V18.375C0 19.8247 1.17525 21 2.625 21H18.375C19.8247 21 21 19.8247 21 18.375V2.625C21 1.17525 19.8247 0 18.375 0H2.625ZM18.375 1.3125C19.0999 1.3125 19.6875 1.90013 19.6875 2.625V18.375C19.6875 19.0999 19.0999 19.6875 18.375 19.6875V18.375C18.375 17.0625 17.0625 13.125 10.5 13.125C3.9375 13.125 2.625 17.0625 2.625 18.375V19.6875C1.90013 19.6875 1.3125 19.0999 1.3125 18.375V2.625C1.3125 1.90013 1.90013 1.3125 2.625 1.3125H18.375Z" fill="#F78C54"/>
</svg>
