<svg width="21" height="21" viewBox="0 0 21 21" fill="none" xmlns="http://www.w3.org/2000/svg">
<path d="M1.3125 3.28125C1.3125 2.19394 2.19394 1.3125 3.28125 1.3125L7.21875 1.3125C8.30606 1.3125 9.1875 2.19394 9.1875 3.28125V7.21875C9.1875 8.30606 8.30606 9.1875 7.21875 9.1875H3.28125C2.19394 9.1875 1.3125 8.30606 1.3125 7.21875L1.3125 3.28125ZM11.8125 3.28125C11.8125 2.19394 12.6939 1.3125 13.7812 1.3125L17.7188 1.3125C18.8061 1.3125 19.6875 2.19394 19.6875 3.28125V7.21875C19.6875 8.30606 18.8061 9.1875 17.7188 9.1875H13.7812C12.6939 9.1875 11.8125 8.30606 11.8125 7.21875V3.28125ZM1.3125 13.7812C1.3125 12.6939 2.19394 11.8125 3.28125 11.8125H7.21875C8.30606 11.8125 9.1875 12.6939 9.1875 13.7812V17.7188C9.1875 18.8061 8.30606 19.6875 7.21875 19.6875H3.28125C2.19394 19.6875 1.3125 18.8061 1.3125 17.7188L1.3125 13.7812ZM11.8125 13.7812C11.8125 12.6939 12.6939 11.8125 13.7812 11.8125H17.7188C18.8061 11.8125 19.6875 12.6939 19.6875 13.7812V17.7188C19.6875 18.8061 18.8061 19.6875 17.7188 19.6875H13.7812C12.6939 19.6875 11.8125 18.8061 11.8125 17.7188V13.7812Z" fill="#F78C54"/>
</svg>
