<svg width="30" height="20" viewBox="0 0 30 20" fill="none" xmlns="http://www.w3.org/2000/svg">
<path d="M29.2778 1.97373C29.4833 1.24828 29.2778 0.714355 28.2889 0.714355H25.0167C24.1833 0.714355 23.8 1.17284 23.5944 1.68355C23.5944 1.68355 21.9278 5.92596 19.5722 8.67686C18.8111 9.47195 18.4611 9.7273 18.0444 9.7273C17.8389 9.7273 17.5222 9.47194 17.5222 8.7465V1.97373C17.5222 1.10319 17.2889 0.714355 16.6 0.714355H11.4555C10.9333 0.714355 10.6222 1.12061 10.6222 1.49784C10.6222 2.32194 11.8 2.51346 11.9222 4.83489V9.87239C11.9222 10.9751 11.7333 11.1782 11.3167 11.1782C10.2055 11.1782 7.50555 6.91837 5.90555 2.04337C5.58333 1.09739 5.26666 0.714355 4.42777 0.714355H1.15555C0.222214 0.714355 0.0333252 1.17284 0.0333252 1.68355C0.0333252 2.58891 1.14444 7.08668 5.20555 13.0295C7.9111 17.0862 11.7222 19.2858 15.1889 19.2858C17.2722 19.2858 17.5278 18.7983 17.5278 17.9568C17.5278 14.08 17.3389 13.7144 18.3833 13.7144C18.8667 13.7144 19.7 13.9697 21.6444 15.9255C23.8667 18.2469 24.2333 19.2858 25.4778 19.2858H28.75C29.6833 19.2858 30.1556 18.7983 29.8833 17.8349C29.2611 15.8094 25.0555 11.6425 24.8667 11.3639C24.3833 10.7139 24.5222 10.4237 24.8667 9.84337C24.8722 9.83757 28.8667 3.96436 29.2778 1.97373Z" fill="black"/>
</svg>
