<svg width="200" height="31" viewBox="0 0 200 31" fill="none" xmlns="http://www.w3.org/2000/svg">
<path d="M19.1705 0.565918C22.6606 0.565918 25.392 1.27335 27.3647 2.68822C29.3374 4.10309 30.2984 6.03674 30.2984 8.53633C30.2984 10.47 29.8432 12.0735 28.9833 13.3469C28.1234 14.6203 26.8589 15.422 25.1897 15.7522C27.0612 16.0823 28.4775 16.8369 29.4891 17.9688C30.5007 19.1478 31.0066 20.657 31.0066 22.5435C31.0066 25.1846 29.9949 27.2597 27.9211 28.7689C25.8472 30.231 23.0147 30.9856 19.3222 30.9856H0V0.565918H19.1705ZM19.0187 12.1207C19.7774 12.1207 20.3844 11.932 20.8396 11.5547C21.2949 11.1774 21.4972 10.6586 21.4972 9.9512C21.4972 9.24377 21.2949 8.67782 20.8396 8.30052C20.3844 7.92323 19.7774 7.68742 19.0187 7.68742H10.9762V12.1207H19.0187ZM19.3222 23.7697C20.2327 23.7697 20.9408 23.5811 21.4466 23.1566C21.9524 22.7322 22.2054 22.1662 22.2054 21.4588C22.2054 20.7985 21.9524 20.2797 21.4466 19.9024C20.9408 19.5251 20.2327 19.3365 19.3222 19.3365H10.9762V23.7697H19.3222Z" fill="#302F2F"/>
<path d="M38.0373 6.98001C39.3018 4.71622 41.1733 2.97122 43.6013 1.79216C46.0292 0.613109 48.9123 0 52.2507 0C55.5891 0 58.4723 0.613109 60.9002 1.79216C63.3281 2.97122 65.1491 4.71622 66.4642 6.98001C67.7287 9.2438 68.3863 11.9792 68.3863 15.0919V30.8913H57.4101V26.0807H47.0914V30.9384H36.1152V15.1391C36.1152 11.9792 36.7222 9.2438 38.0373 6.98001ZM57.4101 18.4404V15.1391C57.4101 13.2997 56.9548 11.8377 56.0444 10.8002C55.1339 9.76258 53.8693 9.2438 52.2507 9.2438C50.6321 9.2438 49.3676 9.76258 48.4571 10.8002C47.5466 11.8377 47.0914 13.2997 47.0914 15.1391V18.4404H57.4101Z" fill="#302F2F"/>
<path d="M76.3782 6.98001C77.6427 4.71622 79.5142 2.97122 81.9421 1.79216C84.3701 0.613109 87.2532 0 90.5916 0C93.93 0 96.8132 0.613109 99.2411 1.79216C101.669 2.97122 103.49 4.71622 104.805 6.98001C106.07 9.2438 106.727 11.9792 106.727 15.0919V30.8913H95.7509V15.1391C95.7509 13.2997 95.2957 11.8377 94.3852 10.8002C93.4748 9.76258 92.2102 9.2438 90.5916 9.2438C88.973 9.2438 87.7085 9.76258 86.798 10.8002C85.8875 11.8377 85.4323 13.2997 85.4323 15.1391V30.9384H74.4561V15.1391C74.4561 11.9792 75.1136 9.2438 76.3782 6.98001Z" fill="#302F2F"/>
<path d="M112.797 0.565918H123.773V11.7434L133.637 0.565918H144.613L131.967 14.1015L144.613 30.9384H133.637L125.695 20.8928L123.773 22.9208V30.9384H112.797V0.565918Z" fill="#302F2F"/>
<path d="M152.605 6.98001C153.869 4.71622 155.741 2.97122 158.169 1.79216C160.597 0.613109 163.48 0 166.818 0C170.157 0 173.04 0.613109 175.468 1.79216C177.896 2.97122 179.717 4.71622 181.032 6.98001C182.296 9.2438 182.954 11.9792 182.954 15.0919V30.8913H171.978V26.0807H161.659V30.9384H150.683V15.1391C150.683 11.9792 151.29 9.2438 152.605 6.98001ZM171.978 18.4404V15.1391C171.978 13.2997 171.522 11.8377 170.612 10.8002C169.701 9.76258 168.437 9.2438 166.818 9.2438C165.2 9.2438 163.935 9.76258 163.025 10.8002C162.114 11.8377 161.659 13.2997 161.659 15.1391V18.4404H171.978Z" fill="#302F2F"/>
<path d="M200 0.565918V30.9384H189.024V0.565918H200Z" fill="#302F2F"/>
</svg>
