<svg width="15" height="16" viewBox="0 0 15 16" fill="none" xmlns="http://www.w3.org/2000/svg">
<path fill-rule="evenodd" clip-rule="evenodd" d="M8.08895 3.83536C8.08895 3.5798 7.88177 3.37262 7.62621 3.37262H1.48438C0.717688 3.37262 0.0961609 3.99415 0.0961609 4.76084V14.0156C0.0961609 14.7823 0.717689 15.4039 1.48438 15.4039H10.7392C11.5059 15.4039 12.1274 14.7823 12.1274 14.0156V7.87382C12.1274 7.61826 11.9202 7.41108 11.6647 7.41108C11.4091 7.41108 11.2019 7.61826 11.2019 7.87382V14.0156C11.2019 14.2712 10.9948 14.4784 10.7392 14.4784H1.48438C1.22882 14.4784 1.02164 14.2712 1.02164 14.0156V4.76084C1.02164 4.50528 1.22882 4.2981 1.48438 4.2981H7.62621C7.88177 4.2981 8.08895 4.09092 8.08895 3.83536Z" fill="white"/>
<path fill-rule="evenodd" clip-rule="evenodd" d="M14.9039 1.0589C14.9039 0.803337 14.6967 0.596161 14.4411 0.596161H9.81371C9.55815 0.596161 9.35097 0.803337 9.35097 1.0589C9.35097 1.31447 9.55815 1.52164 9.81371 1.52164H13.324L5.78458 9.06102C5.60387 9.24173 5.60387 9.53472 5.78458 9.71544C5.96529 9.89615 6.25828 9.89615 6.43899 9.71544L13.9784 2.17606V5.68631C13.9784 5.94187 14.1855 6.14904 14.4411 6.14904C14.6967 6.14904 14.9039 5.94187 14.9039 5.68631V1.0589Z" fill="white"/>
</svg>
