<svg width="28" height="18" viewBox="0 0 28 18" fill="none" xmlns="http://www.w3.org/2000/svg">
<path d="M26.4931 1.97695C26.6729 1.34219 26.4931 0.875 25.6278 0.875H22.7646C22.0354 0.875 21.7 1.27617 21.5201 1.72305C21.5201 1.72305 20.0618 5.43516 18.0007 7.84219C17.3347 8.53789 17.0285 8.76133 16.6639 8.76133C16.484 8.76133 16.207 8.53789 16.207 7.90312V1.97695C16.207 1.21523 16.0028 0.875 15.4 0.875H10.8986C10.4417 0.875 10.1695 1.23047 10.1695 1.56055C10.1695 2.28164 11.2 2.44922 11.307 4.48047V8.88828C11.307 9.85313 11.1417 10.0309 10.7771 10.0309C9.80487 10.0309 7.44237 6.30352 6.04237 2.03789C5.76043 1.21016 5.48334 0.875 4.74931 0.875H1.88612C1.06945 0.875 0.904175 1.27617 0.904175 1.72305C0.904175 2.51523 1.8764 6.45078 5.42987 11.6508C7.79723 15.2004 11.132 17.125 14.1653 17.125C15.9882 17.125 16.2118 16.6984 16.2118 15.9621C16.2118 12.5699 16.0465 12.25 16.9604 12.25C17.3833 12.25 18.1125 12.4734 19.8139 14.1848C21.7583 16.216 22.0792 17.125 23.1681 17.125H26.0313C26.8479 17.125 27.2611 16.6984 27.0229 15.8555C26.4785 14.0832 22.7986 10.4371 22.6333 10.1934C22.2104 9.62461 22.332 9.3707 22.6333 8.86289C22.6382 8.85781 26.1333 3.71875 26.4931 1.97695Z" fill="black"/>
</svg>
